<svg width="98" height="52" viewBox="0 0 98 52" fill="none" xmlns="http://www.w3.org/2000/svg">
<path d="M7.3216 23.3106C5.90165 23.3106 4.55566 23.1923 3.28363 22.9556C2.02638 22.7042 1.05756 22.4231 0.377173 22.1125V17.7196H5.25824C5.25824 18.1781 5.36178 18.5109 5.56885 18.718C5.77593 18.925 6.1531 19.0286 6.70037 19.0286C7.1589 19.0286 7.4843 18.962 7.67659 18.8289C7.88366 18.681 7.9872 18.4665 7.9872 18.1855C7.9872 17.9488 7.89106 17.7492 7.69877 17.5865C7.50649 17.409 7.17369 17.2315 6.70037 17.054L4.79232 16.3884C3.15051 15.7671 1.96722 15.035 1.24245 14.1919C0.53248 13.3488 0.177493 12.2099 0.177493 10.7751C0.177493 9.0298 0.746951 7.70599 1.88587 6.80373C3.03957 5.88668 4.95502 5.42816 7.63221 5.42816C8.91904 5.42816 10.1245 5.56128 11.2486 5.82752C12.3876 6.07897 13.3046 6.41916 13.9998 6.84811V10.8195H9.56245C9.56245 10.08 9.10393 9.71019 8.18688 9.71019C7.74315 9.71019 7.42514 9.76935 7.23285 9.88768C7.05536 9.99122 6.96661 10.1835 6.96661 10.4645C6.96661 10.716 7.07015 10.9157 7.27723 11.0636C7.49909 11.2115 7.85408 11.3668 8.34219 11.5295L10.2724 12.1951C11.8403 12.7276 12.9792 13.4228 13.6892 14.2806C14.4139 15.1237 14.7763 16.2331 14.7763 17.6086C14.7763 19.4871 14.1403 20.9071 12.8683 21.8685C11.611 22.8299 9.76213 23.3106 7.3216 23.3106ZM15.2606 24.2868H16.2368V14.3028H15.2606V10.6642H21.3398V12.1729C21.7095 11.6996 22.1829 11.278 22.7597 10.9083C23.3514 10.5385 24.0243 10.3536 24.7787 10.3536C26.2874 10.3536 27.4189 10.9157 28.1733 12.0398C28.9424 13.1639 29.327 14.7614 29.327 16.8321C29.327 18.9029 28.9424 20.5003 28.1733 21.6244C27.4189 22.7486 26.2874 23.3106 24.7787 23.3106C24.0243 23.3106 23.3514 23.1257 22.7597 22.7559C22.1829 22.3862 21.7095 21.9646 21.3398 21.4913V24.2868H22.8706V27.9254H15.2606V24.2868ZM22.6266 19.3614C23.0555 19.3614 23.3735 19.2505 23.5806 19.0286C23.8025 18.7919 23.9134 18.4295 23.9134 17.9414V15.7228C23.9134 15.2347 23.8025 14.8797 23.5806 14.6578C23.3735 14.4212 23.0555 14.3028 22.6266 14.3028C22.1976 14.3028 21.8722 14.4212 21.6504 14.6578C21.4433 14.8797 21.3398 15.2347 21.3398 15.7228V17.9414C21.3398 18.4295 21.4433 18.7919 21.6504 19.0286C21.8722 19.2505 22.1976 19.3614 22.6266 19.3614ZM36.5643 23.3106C34.464 23.3106 32.8222 22.7633 31.6389 21.6688C30.4556 20.5595 29.8639 18.9472 29.8639 16.8321C29.8639 14.717 30.4556 13.1121 31.6389 12.0176C32.8222 10.9083 34.464 10.3536 36.5643 10.3536C38.6499 10.3536 40.1512 10.9009 41.0682 11.9954C42.0001 13.0752 42.466 14.4212 42.466 16.0334V17.6308H35.2775V17.7639C35.2775 18.3112 35.4402 18.718 35.7656 18.9842C36.091 19.2357 36.6309 19.3614 37.3852 19.3614C38.2875 19.3614 39.1454 19.2948 39.9589 19.1617C40.7724 19.0286 41.4824 18.8585 42.0888 18.6514V22.2013C41.5711 22.4823 40.8094 22.7412 39.8036 22.9778C38.8126 23.1997 37.7328 23.3106 36.5643 23.3106ZM37.8511 15.1903V14.9241C37.8511 14.4212 37.7402 14.0588 37.5183 13.8369C37.3113 13.615 36.9933 13.5041 36.5643 13.5041C36.1354 13.5041 35.81 13.6224 35.5881 13.8591C35.381 14.081 35.2775 14.4359 35.2775 14.9241V15.1903H37.8511ZM56.0609 19.3614V23H50.2036V21.4913C49.8782 21.9646 49.4196 22.3862 48.828 22.7559C48.2511 23.1257 47.5412 23.3106 46.6981 23.3106C45.5887 23.3106 44.7161 23.0148 44.0801 22.4231C43.444 21.8315 43.126 20.9958 43.126 19.9161C43.126 17.1205 45.5 15.6858 50.2479 15.6118C50.2036 15.1089 50.0113 14.7687 49.6711 14.5913C49.3309 14.399 48.754 14.3028 47.9405 14.3028C47.2749 14.3028 46.5576 14.3768 45.7884 14.5247C45.0341 14.6578 44.3389 14.8427 43.7029 15.0794V10.997C44.4868 10.8047 45.3373 10.6494 46.2543 10.5311C47.1714 10.4128 48.0663 10.3536 48.9389 10.3536C51.1428 10.3536 52.7181 10.753 53.6647 11.5517C54.6113 12.3504 55.0846 13.5855 55.0846 15.2569V19.3614H56.0609ZM50.2036 17.8083C49.538 17.8083 49.0203 17.8971 48.6505 18.0746C48.2955 18.2521 48.118 18.5479 48.118 18.962C48.118 19.2135 48.192 19.4206 48.3399 19.5833C48.5026 19.7312 48.7245 19.8051 49.0055 19.8051C49.3901 19.8051 49.6859 19.6424 49.893 19.317C50.1 18.9916 50.2036 18.5331 50.2036 17.9414V17.8083ZM70.1546 19.3614H71.1086V23H65.6729L63.3877 18.7402H62.8552V23H56.776V19.3614H57.7522V9.37739H56.776V5.73877H62.8552V14.7466H63.3877L66.1388 10.6642H70.8202V14.3028H69.9105L68.0247 16.4106L70.1546 19.3614ZM78.5087 23V19.3614H79.6181V9.37739H78.5087V5.73877H86.9397V9.37739H85.8303V19.3614H86.9397V23H78.5087ZM93.2611 23.3106C91.6933 23.3106 90.51 22.9334 89.7113 22.1791C88.9273 21.41 88.5354 20.1231 88.5354 18.3186V14.3028H87.5592V10.6642C88.1212 10.6642 88.5428 10.5237 88.8238 10.2427C89.1048 9.94684 89.2453 9.54748 89.2453 9.04459V8.04619H93.9489V10.6642H96.9441V14.3028H93.9489V17.9414C93.9489 18.4295 94.0525 18.7919 94.2595 19.0286C94.4814 19.2505 94.8068 19.3614 95.2357 19.3614C95.7978 19.3614 96.4116 19.2948 97.0772 19.1617V22.645C96.6631 22.8077 96.101 22.9556 95.3911 23.0887C94.6959 23.2367 93.9859 23.3106 93.2611 23.3106Z" fill="black"/>
<path d="M28.2316 45.0408C28.2316 45.2257 28.165 45.381 28.0319 45.5067C27.8988 45.6324 27.7398 45.6953 27.5549 45.6953C27.37 45.6953 27.211 45.6324 27.0779 45.5067C26.9447 45.381 26.8782 45.2257 26.8782 45.0408C26.8782 44.8559 26.9447 44.6969 27.0779 44.5638C27.211 44.4307 27.37 44.3641 27.5549 44.3641C27.7398 44.3641 27.8988 44.4307 28.0319 44.5638C28.165 44.6969 28.2316 44.8559 28.2316 45.0408ZM30.6366 45.0408C30.6366 45.2257 30.57 45.381 30.4369 45.5067C30.3038 45.6324 30.1448 45.6953 29.9599 45.6953C29.775 45.6953 29.616 45.6324 29.4829 45.5067C29.3497 45.381 29.2832 45.2257 29.2832 45.0408C29.2832 44.8559 29.3497 44.6969 29.4829 44.5638C29.616 44.4307 29.775 44.3641 29.9599 44.3641C30.1448 44.3641 30.3038 44.4307 30.4369 44.5638C30.57 44.6969 30.6366 44.8559 30.6366 45.0408ZM33.0416 45.0408C33.0416 45.2257 32.975 45.381 32.8419 45.5067C32.7088 45.6324 32.5498 45.6953 32.3649 45.6953C32.18 45.6953 32.021 45.6324 31.8879 45.5067C31.7547 45.381 31.6882 45.2257 31.6882 45.0408C31.6882 44.8559 31.7547 44.6969 31.8879 44.5638C32.021 44.4307 32.18 44.3641 32.3649 44.3641C32.5498 44.3641 32.7088 44.4307 32.8419 44.5638C32.975 44.6969 33.0416 44.8559 33.0416 45.0408ZM35.5797 44.5749C35.5797 44.6636 35.6056 44.7487 35.6573 44.83C35.7091 44.9114 35.7979 44.952 35.9236 44.952C36.0271 44.952 36.1344 44.9077 36.2453 44.8189C36.3636 44.7228 36.4524 44.6229 36.5115 44.5194L36.7001 44.6858C36.5744 44.9299 36.4006 45.1369 36.1787 45.307C35.9569 45.4771 35.735 45.5622 35.5131 45.5622C34.8919 45.5622 34.5813 45.1887 34.5813 44.4418V35.678L35.5797 35.2565V44.5749ZM38.5286 38.8396L38.1625 38.9727L37.7077 36.6653L38.9058 36.2549L38.5286 38.8396ZM38.8947 44.5749C38.8947 44.6858 38.9206 44.7783 38.9723 44.8522C39.0315 44.9188 39.1129 44.952 39.2164 44.952C39.2977 44.952 39.3865 44.9151 39.4826 44.8411C39.5862 44.7672 39.6897 44.6599 39.7932 44.5194L39.9707 44.6858C39.8006 45.0038 39.5936 45.2294 39.3495 45.3625C39.1129 45.4956 38.8947 45.5622 38.695 45.5622C38.4288 45.5622 38.2217 45.4771 38.0738 45.307C37.9333 45.1369 37.863 44.8485 37.863 44.4418V40.4038L38.8947 40.0044V44.5749ZM42.1106 43.3546H42.1883C42.4028 42.5115 42.7134 41.7202 43.1201 40.9806C43.5343 40.2337 44.0335 39.8602 44.6177 39.8602C44.8544 39.8602 45.043 39.9527 45.1835 40.1375C45.324 40.3224 45.3943 40.548 45.3943 40.8142C45.3943 41.2654 45.202 41.698 44.8174 42.1122C44.4328 42.5263 43.9928 42.8813 43.4973 43.1771C43.5343 43.2289 43.66 43.4175 43.8745 43.7429C44.0963 44.0609 44.3367 44.3456 44.5955 44.5971C44.8544 44.8485 45.0762 44.9742 45.2611 44.9742C45.5274 44.9742 45.7677 44.8485 45.9822 44.5971L46.1597 44.7856C45.997 45.0371 45.7714 45.2405 45.483 45.3958C45.202 45.5437 44.9246 45.6176 44.651 45.6176C44.333 45.6176 44.0446 45.4993 43.7857 45.2627C43.5343 45.026 43.2606 44.7006 42.9648 44.2864C42.7282 43.961 42.5507 43.7503 42.4323 43.6541L42.3325 43.7318C42.2807 43.9019 42.2364 44.1533 42.1994 44.4861C42.1624 44.8189 42.1402 45.1147 42.1328 45.3736L41.1122 45.662V35.678L42.1106 35.2565V43.3546ZM43.9299 41.0583C43.7081 41.0583 43.4862 41.2469 43.2643 41.624C43.0425 41.9938 42.8132 42.4597 42.5765 43.0218C42.4582 43.2954 42.3917 43.4397 42.3769 43.4544C42.8724 43.2474 43.3198 42.9626 43.7192 42.6003C44.1185 42.2379 44.3182 41.8718 44.3182 41.502C44.3182 41.4059 44.2812 41.3097 44.2073 41.2136C44.1407 41.1101 44.0483 41.0583 43.9299 41.0583ZM49.8965 39.8602C50.2959 39.8602 50.6287 39.9674 50.8949 40.1819C51.1611 40.3964 51.2943 40.7144 51.2943 41.1359C51.2943 41.4761 51.1094 41.857 50.7396 42.2786C50.3772 42.6927 49.9483 43.0736 49.4528 43.4212C48.9647 43.7688 48.5468 44.0128 48.1992 44.1533C48.3841 44.4491 48.5949 44.6562 48.8315 44.7746C49.0682 44.8855 49.3455 44.941 49.6635 44.941C50.0185 44.941 50.3698 44.8522 50.7174 44.6747C51.0724 44.4898 51.3645 44.2532 51.5938 43.9647L51.7269 44.1977C51.3645 44.6636 50.98 45.0223 50.5732 45.2738C50.1664 45.5178 49.6672 45.6398 49.0756 45.6398C48.6245 45.6398 48.2214 45.5289 47.8664 45.307C47.5114 45.0852 47.2341 44.7893 47.0344 44.4196C46.8347 44.0424 46.7349 43.6356 46.7349 43.1993C46.7349 42.652 46.8828 42.1195 47.1786 41.6019C47.4745 41.0842 47.8664 40.6663 48.3545 40.3483C48.8426 40.0229 49.3566 39.8602 49.8965 39.8602ZM49.3196 40.5591C48.9942 40.5591 48.7021 40.6626 48.4433 40.8697C48.1918 41.0768 47.9921 41.343 47.8442 41.6684C47.7037 41.9938 47.6335 42.3303 47.6335 42.6779C47.6335 43.1364 47.7407 43.5284 47.9552 43.8538C48.2658 43.7133 48.6023 43.5025 48.9647 43.2215C49.327 42.9331 49.634 42.6224 49.8854 42.2896C50.1369 41.9568 50.2626 41.6536 50.2626 41.38C50.2626 40.8327 49.9483 40.5591 49.3196 40.5591ZM57.8871 39.96C58.2495 39.96 58.5897 40.0377 58.9077 40.193C59.2331 40.3483 59.4697 40.585 59.6176 40.903L58.8189 41.3356C58.7006 41.1655 58.5379 41.0139 58.3308 40.8808C58.1237 40.7403 57.9019 40.67 57.6652 40.67C57.288 40.67 56.9589 40.7699 56.6779 40.9695C56.3969 41.1618 56.1824 41.4244 56.0345 41.7572C55.8866 42.09 55.8126 42.4597 55.8126 42.8665C55.8126 43.4507 55.9125 43.9278 56.1121 44.2975C56.3118 44.6599 56.6261 44.8411 57.0551 44.8411C57.6615 44.8411 58.0794 44.5971 58.3086 44.109C58.5379 43.6208 58.6525 43.0884 58.6525 42.5115V42.0123L59.6287 41.6019V44.5194C59.6287 44.6155 59.6546 44.708 59.7064 44.7967C59.7582 44.8855 59.8358 44.9299 59.9393 44.9299C60.1538 44.9299 60.3498 44.7819 60.5273 44.4861L60.6937 44.6636C60.6049 44.9151 60.4496 45.1295 60.2278 45.307C60.0059 45.4771 59.784 45.5622 59.5622 45.5622C59.2442 45.5622 59.0075 45.4439 58.8522 45.2072C58.7043 44.9705 58.6303 44.6562 58.6303 44.2643H58.6081C58.4233 44.6562 58.1718 44.9853 57.8538 45.2516C57.5432 45.5104 57.2141 45.6398 56.8665 45.6398C56.2379 45.6398 55.7609 45.4254 55.4355 44.9964C55.1174 44.5601 54.9584 43.9795 54.9584 43.2548C54.9584 42.6779 55.0879 42.138 55.3467 41.6351C55.6056 41.1248 55.9568 40.7181 56.4006 40.4149C56.8517 40.1117 57.3472 39.96 57.8871 39.96ZM65.198 44.5749C65.198 44.6636 65.2239 44.7487 65.2757 44.83C65.3274 44.9114 65.4162 44.952 65.5419 44.952C65.6455 44.952 65.7527 44.9077 65.8636 44.8189C65.982 44.7228 66.0707 44.6229 66.1299 44.5194L66.3184 44.6858C66.1927 44.9299 66.0189 45.1369 65.7971 45.307C65.5752 45.4771 65.3533 45.5622 65.1315 45.5622C64.5102 45.5622 64.1996 45.1887 64.1996 44.4418V35.678L65.198 35.2565V44.5749ZM69.7777 40.0932C69.223 40.4482 68.7867 40.8438 68.4686 41.2802C68.1506 41.7165 67.9916 42.2305 67.9916 42.8221C67.9916 43.1549 68.0619 43.4914 68.2024 43.8316C68.3429 44.1644 68.5537 44.4418 68.8347 44.6636C69.1158 44.8855 69.4523 44.9964 69.8442 44.9964C70.1622 44.9964 70.4433 44.9225 70.6873 44.7746C70.9388 44.6266 71.131 44.427 71.2642 44.1755C71.4047 43.9241 71.4749 43.6467 71.4749 43.3435C71.4749 42.9959 71.3677 42.6409 71.1532 42.2786C70.9462 41.9162 70.6725 41.6093 70.3323 41.3578C69.9921 41.1064 69.6445 40.9658 69.2896 40.9363C69.4375 40.7883 69.615 40.633 69.822 40.4703C70.0291 40.3076 70.2399 40.1486 70.4544 39.9933C70.9646 40.1634 71.3677 40.4888 71.6635 40.9695C71.9593 41.4429 72.1073 41.9716 72.1073 42.5559C72.1073 43.0736 72 43.5728 71.7856 44.0535C71.5785 44.5268 71.2716 44.9151 70.8648 45.2183C70.4581 45.5141 69.9773 45.662 69.4227 45.662C68.9789 45.662 68.5685 45.5548 68.1913 45.3403C67.8215 45.1184 67.5294 44.8189 67.3149 44.4418C67.1005 44.0646 66.9932 43.6467 66.9932 43.1882C66.9932 42.3821 67.2299 41.6832 67.7032 41.0916C68.1839 40.4999 68.8088 40.0895 69.578 39.8602L69.7777 40.0932ZM76.2096 39.8935C76.5128 39.8935 76.7939 39.9785 77.0527 40.1486C77.3116 40.3187 77.5149 40.5887 77.6629 40.9584L76.7532 41.4244C76.6792 41.1655 76.5313 40.9621 76.3095 40.8142C76.095 40.6663 75.8657 40.5924 75.6217 40.5924C75.2667 40.5924 74.9524 40.6848 74.6787 40.8697C74.4051 41.0546 74.1943 41.2912 74.0464 41.5797C73.8985 41.8681 73.8246 42.1602 73.8246 42.456C73.8246 42.9737 73.9096 43.4212 74.0797 43.7983C74.2498 44.1681 74.4828 44.4528 74.7786 44.6525C75.0744 44.8448 75.4072 44.941 75.777 44.941C76.2207 44.941 76.609 44.8337 76.9418 44.6192C77.2746 44.3974 77.5889 44.1163 77.8847 43.7762L78.0733 43.9536C77.7109 44.5083 77.3264 44.9299 76.9196 45.2183C76.5202 45.4993 76.0284 45.6398 75.4442 45.6398C74.9857 45.6398 74.5752 45.5326 74.2128 45.3181C73.8504 45.1037 73.5657 44.8004 73.3586 44.4085C73.1516 44.0091 73.048 43.5506 73.048 43.0329C73.048 42.456 73.1664 41.931 73.403 41.4576C73.6397 40.9769 73.9947 40.5961 74.468 40.315C74.9413 40.034 75.5218 39.8935 76.2096 39.8935ZM81.8288 39.96C82.1911 39.96 82.5313 40.0377 82.8493 40.193C83.1747 40.3483 83.4114 40.585 83.5593 40.903L82.7606 41.3356C82.6423 41.1655 82.4796 41.0139 82.2725 40.8808C82.0654 40.7403 81.8435 40.67 81.6069 40.67C81.2297 40.67 80.9006 40.7699 80.6196 40.9695C80.3385 41.1618 80.1241 41.4244 79.9762 41.7572C79.8283 42.09 79.7543 42.4597 79.7543 42.8665C79.7543 43.4507 79.8541 43.9278 80.0538 44.2975C80.2535 44.6599 80.5678 44.8411 80.9968 44.8411C81.6032 44.8411 82.021 44.5971 82.2503 44.109C82.4796 43.6208 82.5942 43.0884 82.5942 42.5115V42.0123L83.5704 41.6019V44.5194C83.5704 44.6155 83.5963 44.708 83.6481 44.7967C83.6998 44.8855 83.7775 44.9299 83.881 44.9299C84.0955 44.9299 84.2915 44.7819 84.469 44.4861L84.6354 44.6636C84.5466 44.9151 84.3913 45.1295 84.1694 45.307C83.9476 45.4771 83.7257 45.5622 83.5038 45.5622C83.1858 45.5622 82.9492 45.4439 82.7939 45.2072C82.646 44.9705 82.572 44.6562 82.572 44.2643H82.5498C82.3649 44.6562 82.1135 44.9853 81.7955 45.2516C81.4849 45.5104 81.1558 45.6398 80.8082 45.6398C80.1795 45.6398 79.7025 45.4254 79.3771 44.9964C79.0591 44.5601 78.9001 43.9795 78.9001 43.2548C78.9001 42.6779 79.0295 42.138 79.2884 41.6351C79.5472 41.1248 79.8985 40.7181 80.3422 40.4149C80.7934 40.1117 81.2889 39.96 81.8288 39.96ZM86.7564 44.5749C86.7564 44.6636 86.7822 44.7487 86.834 44.83C86.8858 44.9114 86.9745 44.952 87.1002 44.952C87.2038 44.952 87.311 44.9077 87.422 44.8189C87.5403 44.7228 87.629 44.6229 87.6882 44.5194L87.8768 44.6858C87.7511 44.9299 87.5773 45.1369 87.3554 45.307C87.1335 45.4771 86.9117 45.5622 86.6898 45.5622C86.0686 45.5622 85.758 45.1887 85.758 44.4418V35.678L86.7564 35.2565V44.5749Z" fill="black"/>
</svg>
