<svg width="209" height="111" viewBox="0 0 209 111" fill="none" xmlns="http://www.w3.org/2000/svg">
<path d="M15.6288 49.663C12.5978 49.663 9.72459 49.4105 7.00928 48.9053C4.32555 48.3685 2.25749 47.7686 0.80512 47.1056V37.7283H11.2243C11.2243 38.7071 11.4453 39.4175 11.8874 39.8595C12.3294 40.3015 13.1345 40.5226 14.3027 40.5226C15.2815 40.5226 15.9761 40.3805 16.3866 40.0963C16.8286 39.7806 17.0496 39.3228 17.0496 38.7229C17.0496 38.2177 16.8444 37.7915 16.4339 37.4442C16.0235 37.0653 15.3131 36.6864 14.3027 36.3075L10.2298 34.8867C6.72512 33.5606 4.19925 31.9978 2.65216 30.1981C1.13664 28.3984 0.37888 25.9673 0.37888 22.9046C0.37888 19.179 1.59445 16.3532 4.0256 14.4272C6.48832 12.4697 10.5771 11.4909 16.2918 11.4909C19.0387 11.4909 21.6119 11.775 24.0115 12.3434C26.4427 12.8801 28.4002 13.6063 29.8842 14.5219V22.9994H20.4122C20.4122 21.4207 19.4334 20.6314 17.4758 20.6314C16.5286 20.6314 15.8498 20.7577 15.4394 21.0102C15.0605 21.2313 14.871 21.6417 14.871 22.2416C14.871 22.7783 15.0921 23.2046 15.5341 23.5203C16.0077 23.8361 16.7654 24.1676 17.8074 24.5149L21.9277 25.9357C25.2745 27.0723 27.7056 28.5563 29.2211 30.3875C30.7682 32.1872 31.5418 34.5552 31.5418 37.4915C31.5418 41.5013 30.1841 44.5324 27.4688 46.5846C24.7851 48.6369 20.8384 49.663 15.6288 49.663ZM32.5755 51.7469H34.6594V30.4349H32.5755V22.6678H45.5522V25.8883C46.3415 24.878 47.3519 23.9781 48.5832 23.1888C49.8462 22.3995 51.2827 22.0048 52.893 22.0048C56.1135 22.0048 58.5288 23.2046 60.1391 25.6042C61.7809 28.0037 62.6018 31.4137 62.6018 35.8339C62.6018 40.2542 61.7809 43.6641 60.1391 46.0637C58.5288 48.4633 56.1135 49.663 52.893 49.663C51.2827 49.663 49.8462 49.2684 48.5832 48.479C47.3519 47.6897 46.3415 46.7899 45.5522 45.7795V51.7469H48.82V59.5139H32.5755V51.7469ZM48.2991 41.233C49.2147 41.233 49.8935 40.9962 50.3355 40.5226C50.8091 40.0174 51.0459 39.2438 51.0459 38.2019V33.4659C51.0459 32.424 50.8091 31.6662 50.3355 31.1926C49.8935 30.6875 49.2147 30.4349 48.2991 30.4349C47.3834 30.4349 46.6888 30.6875 46.2152 31.1926C45.7732 31.6662 45.5522 32.424 45.5522 33.4659V38.2019C45.5522 39.2438 45.7732 40.0174 46.2152 40.5226C46.6888 40.9962 47.3834 41.233 48.2991 41.233ZM78.0508 49.663C73.5673 49.663 70.0627 48.4948 67.5368 46.1584C65.011 43.7904 63.748 40.3489 63.748 35.8339C63.748 31.3189 65.011 27.8932 67.5368 25.5568C70.0627 23.1888 73.5673 22.0048 78.0508 22.0048C82.5026 22.0048 85.7073 23.173 87.6648 25.5094C89.654 27.8143 90.6485 30.6875 90.6485 34.129V37.5389H75.3039V37.823C75.3039 38.9913 75.6512 39.8595 76.3458 40.4278C77.0404 40.9646 78.1928 41.233 79.8031 41.233C81.7291 41.233 83.5603 41.0909 85.2968 40.8067C87.0334 40.5226 88.5489 40.1595 89.8434 39.7174V47.295C88.7383 47.8949 87.1123 48.4475 84.9653 48.9526C82.8499 49.4262 80.5451 49.663 78.0508 49.663ZM80.7976 32.3293V31.761C80.7976 30.6875 80.5608 29.9139 80.0872 29.4403C79.6452 28.9667 78.9664 28.7299 78.0508 28.7299C77.1351 28.7299 76.4405 28.9825 75.9669 29.4877C75.5249 29.9613 75.3039 30.719 75.3039 31.761V32.3293H80.7976ZM119.668 41.233V49H107.165V45.7795C106.471 46.7899 105.492 47.6897 104.229 48.479C102.998 49.2684 101.482 49.663 99.6824 49.663C97.3144 49.663 95.4516 49.0316 94.094 47.7686C92.7363 46.5057 92.0575 44.7218 92.0575 42.417C92.0575 36.4496 97.125 33.387 107.26 33.2291C107.165 32.1556 106.755 31.4294 106.029 31.0506C105.302 30.6401 104.071 30.4349 102.335 30.4349C100.914 30.4349 99.3825 30.5927 97.7407 30.9085C96.1304 31.1926 94.6465 31.5873 93.2888 32.0925V23.3782C94.9622 22.9678 96.7777 22.6363 98.7352 22.3837C100.693 22.1311 102.603 22.0048 104.466 22.0048C109.17 22.0048 112.533 22.8573 114.553 24.5622C116.574 26.2672 117.585 28.9036 117.585 32.4714V41.233H119.668ZM107.165 37.9178C105.745 37.9178 104.639 38.1072 103.85 38.4861C103.092 38.865 102.713 39.4964 102.713 40.3805C102.713 40.9172 102.871 41.3593 103.187 41.7066C103.534 42.0223 104.008 42.1802 104.608 42.1802C105.429 42.1802 106.06 41.8329 106.502 41.1382C106.944 40.4436 107.165 39.4649 107.165 38.2019V37.9178ZM149.753 41.233H151.79V49H140.186L135.308 39.9069H134.172V49H121.195V41.233H123.279V19.921H121.195V12.1539H134.172V31.3821H135.308L141.181 22.6678H151.174V30.4349H149.232L145.207 34.9341L149.753 41.233ZM167.586 49V41.233H169.954V19.921H167.586V12.1539H185.583V19.921H183.215V41.233H185.583V49H167.586ZM199.077 49.663C195.73 49.663 193.204 48.8579 191.499 47.2477C189.826 45.6059 188.989 42.859 188.989 39.007V30.4349H186.905V22.6678C188.105 22.6678 189.005 22.3679 189.605 21.768C190.205 21.1365 190.505 20.2841 190.505 19.2106V17.0794H200.545V22.6678H206.938V30.4349H200.545V38.2019C200.545 39.2438 200.766 40.0174 201.208 40.5226C201.681 40.9962 202.376 41.233 203.292 41.233C204.491 41.233 205.802 41.0909 207.223 40.8067V48.2422C206.339 48.5895 205.139 48.9053 203.623 49.1894C202.139 49.5052 200.624 49.663 199.077 49.663Z" fill="#124163"/>
<path d="M60.2639 95.1254C60.2639 95.5201 60.1218 95.8516 59.8376 96.12C59.5535 96.3883 59.2141 96.5225 58.8194 96.5225C58.4247 96.5225 58.0853 96.3883 57.8012 96.12C57.517 95.8516 57.3749 95.5201 57.3749 95.1254C57.3749 94.7307 57.517 94.3913 57.8012 94.1072C58.0853 93.823 58.4247 93.6809 58.8194 93.6809C59.2141 93.6809 59.5535 93.823 59.8376 94.1072C60.1218 94.3913 60.2639 94.7307 60.2639 95.1254ZM65.3976 95.1254C65.3976 95.5201 65.2556 95.8516 64.9714 96.12C64.6872 96.3883 64.3478 96.5225 63.9532 96.5225C63.5585 96.5225 63.2191 96.3883 62.9349 96.12C62.6508 95.8516 62.5087 95.5201 62.5087 95.1254C62.5087 94.7307 62.6508 94.3913 62.9349 94.1072C63.2191 93.823 63.5585 93.6809 63.9532 93.6809C64.3478 93.6809 64.6872 93.823 64.9714 94.1072C65.2556 94.3913 65.3976 94.7307 65.3976 95.1254ZM70.5314 95.1254C70.5314 95.5201 70.3893 95.8516 70.1051 96.12C69.821 96.3883 69.4816 96.5225 69.0869 96.5225C68.6922 96.5225 68.3528 96.3883 68.0687 96.12C67.7845 95.8516 67.6424 95.5201 67.6424 95.1254C67.6424 94.7307 67.7845 94.3913 68.0687 94.1072C68.3528 93.823 68.6922 93.6809 69.0869 93.6809C69.4816 93.6809 69.821 93.823 70.1051 94.1072C70.3893 94.3913 70.5314 94.7307 70.5314 95.1254ZM75.9493 94.1308C75.9493 94.3203 76.0045 94.5018 76.1151 94.6755C76.2256 94.8491 76.415 94.936 76.6834 94.936C76.9044 94.936 77.1333 94.8412 77.3701 94.6518C77.6227 94.4466 77.8121 94.2335 77.9384 94.0124L78.341 94.3676C78.0726 94.8886 77.7016 95.3306 77.228 95.6937C76.7544 96.0568 76.2808 96.2384 75.8072 96.2384C74.4811 96.2384 73.8181 95.4411 73.8181 93.8467V75.1395L75.9493 74.2396V94.1308ZM82.2441 81.8883L81.4627 82.1724L80.4918 77.247L83.0492 76.3708L82.2441 81.8883ZM83.0255 94.1308C83.0255 94.3676 83.0808 94.565 83.1913 94.7228C83.3176 94.8649 83.4912 94.936 83.7123 94.936C83.8859 94.936 84.0754 94.857 84.2806 94.6992C84.5016 94.5413 84.7226 94.3124 84.9436 94.0124L85.3225 94.3676C84.9594 95.0465 84.5174 95.528 83.9964 95.8121C83.4912 96.0963 83.0255 96.2384 82.5993 96.2384C82.031 96.2384 81.589 96.0568 81.2732 95.6937C80.9733 95.3306 80.8233 94.715 80.8233 93.8467V85.2272L83.0255 84.3747V94.1308ZM89.8903 91.526H90.0561C90.5139 89.7264 91.177 88.0372 92.0452 86.4585C92.9293 84.8641 93.9949 84.0668 95.242 84.0668C95.7472 84.0668 96.1498 84.2642 96.4497 84.6588C96.7496 85.0535 96.8996 85.535 96.8996 86.1033C96.8996 87.0663 96.4892 87.9898 95.6683 88.8739C94.8474 89.7579 93.908 90.5157 92.8503 91.1472C92.9293 91.2577 93.1976 91.6602 93.6555 92.3548C94.1291 93.0337 94.6421 93.6415 95.1947 94.1782C95.7472 94.715 96.2208 94.9833 96.6155 94.9833C97.1838 94.9833 97.6968 94.715 98.1547 94.1782L98.5335 94.5808C98.1862 95.1175 97.7047 95.5516 97.0891 95.8832C96.4892 96.1989 95.8972 96.3568 95.3131 96.3568C94.6342 96.3568 94.0186 96.1042 93.466 95.599C92.9293 95.0938 92.3452 94.3992 91.7137 93.5152C91.2085 92.8206 90.8296 92.3706 90.5771 92.1654L90.3639 92.3312C90.2534 92.6943 90.1587 93.231 90.0798 93.9414C90.0008 94.6518 89.9535 95.2833 89.9377 95.8358L87.7591 96.4515V75.1395L89.8903 74.2396V91.526ZM93.7739 86.6243C93.3003 86.6243 92.8267 87.0268 92.3531 87.832C91.8795 88.6213 91.3901 89.6159 90.8849 90.8156C90.6323 91.3998 90.4902 91.7076 90.4587 91.7392C91.5164 91.2971 92.4715 90.6894 93.3239 89.9158C94.1764 89.1423 94.6027 88.3608 94.6027 87.5715C94.6027 87.3663 94.5237 87.161 94.3659 86.9558C94.2238 86.7348 94.0264 86.6243 93.7739 86.6243ZM106.51 84.0668C107.363 84.0668 108.073 84.2958 108.641 84.7536C109.21 85.2114 109.494 85.8902 109.494 86.79C109.494 87.5162 109.099 88.3292 108.31 89.2291C107.536 90.1131 106.621 90.9262 105.563 91.6681C104.521 92.4101 103.629 92.9311 102.887 93.231C103.282 93.8625 103.732 94.3045 104.237 94.5571C104.742 94.7939 105.334 94.9123 106.013 94.9123C106.771 94.9123 107.521 94.7228 108.263 94.344C109.02 93.9493 109.644 93.4441 110.133 92.8284L110.417 93.3257C109.644 94.3203 108.823 95.0859 107.955 95.6227C107.086 96.1436 106.021 96.4041 104.758 96.4041C103.795 96.4041 102.935 96.1673 102.177 95.6937C101.419 95.2201 100.827 94.5887 100.401 93.7993C99.9745 92.9942 99.7614 92.1259 99.7614 91.1945C99.7614 90.0263 100.077 88.8897 100.709 87.7846C101.34 86.6795 102.177 85.7876 103.219 85.1088C104.261 84.4142 105.358 84.0668 106.51 84.0668ZM105.279 85.5587C104.584 85.5587 103.961 85.7797 103.408 86.2217C102.871 86.6638 102.445 87.2321 102.129 87.9267C101.829 88.6213 101.679 89.3396 101.679 90.0816C101.679 91.0603 101.908 91.897 102.366 92.5916C103.029 92.2917 103.748 91.8418 104.521 91.2419C105.295 90.6262 105.95 89.9632 106.487 89.2528C107.023 88.5424 107.292 87.8951 107.292 87.311C107.292 86.1428 106.621 85.5587 105.279 85.5587ZM123.567 84.28C124.341 84.28 125.067 84.4457 125.746 84.7772C126.44 85.1088 126.945 85.6139 127.261 86.2928L125.556 87.2163C125.304 86.8532 124.956 86.5296 124.514 86.2454C124.072 85.9455 123.599 85.7955 123.093 85.7955C122.288 85.7955 121.586 86.0086 120.986 86.4348C120.386 86.8453 119.928 87.4057 119.612 88.1161C119.297 88.8265 119.139 89.6159 119.139 90.4841C119.139 91.7313 119.352 92.7495 119.778 93.5388C120.204 94.3124 120.875 94.6992 121.791 94.6992C123.086 94.6992 123.977 94.1782 124.467 93.1363C124.956 92.0944 125.201 90.9577 125.201 89.7264V88.6608L127.285 87.7846V94.0124C127.285 94.2177 127.34 94.415 127.451 94.6044C127.561 94.7939 127.727 94.8886 127.948 94.8886C128.406 94.8886 128.824 94.5729 129.203 93.9414L129.558 94.3203C129.369 94.857 129.037 95.3148 128.563 95.6937C128.09 96.0568 127.616 96.2384 127.143 96.2384C126.464 96.2384 125.959 95.9858 125.627 95.4806C125.311 94.9754 125.154 94.3045 125.154 93.4678H125.106C124.712 94.3045 124.175 95.007 123.496 95.5753C122.833 96.1279 122.13 96.4041 121.388 96.4041C120.047 96.4041 119.028 95.9463 118.334 95.0307C117.655 94.0993 117.315 92.86 117.315 91.3129C117.315 90.0816 117.592 88.9291 118.144 87.8556C118.697 86.7664 119.447 85.8981 120.394 85.2508C121.357 84.6036 122.415 84.28 123.567 84.28ZM139.173 94.1308C139.173 94.3203 139.228 94.5018 139.339 94.6755C139.449 94.8491 139.639 94.936 139.907 94.936C140.128 94.936 140.357 94.8412 140.594 94.6518C140.846 94.4466 141.036 94.2335 141.162 94.0124L141.565 94.3676C141.296 94.8886 140.925 95.3306 140.452 95.6937C139.978 96.0568 139.505 96.2384 139.031 96.2384C137.705 96.2384 137.042 95.4411 137.042 93.8467V75.1395L139.173 74.2396V94.1308ZM148.949 84.5641C147.765 85.3219 146.833 86.1665 146.155 87.0979C145.476 88.0293 145.136 89.1265 145.136 90.3894C145.136 91.0998 145.286 91.8181 145.586 92.5443C145.886 93.2547 146.336 93.8467 146.936 94.3203C147.536 94.7939 148.254 95.0307 149.091 95.0307C149.77 95.0307 150.37 94.8728 150.891 94.5571C151.427 94.2414 151.838 93.8151 152.122 93.2784C152.422 92.7416 152.572 92.1496 152.572 91.5024C152.572 90.7604 152.343 90.0026 151.885 89.2291C151.443 88.4555 150.859 87.8004 150.133 87.2636C149.407 86.7269 148.665 86.427 147.907 86.3638C148.223 86.0481 148.602 85.7166 149.044 85.3692C149.486 85.0219 149.935 84.6825 150.393 84.351C151.483 84.7141 152.343 85.4087 152.974 86.4348C153.606 87.4452 153.922 88.5739 153.922 89.8211C153.922 90.9262 153.693 91.9918 153.235 93.0179C152.793 94.0282 152.138 94.857 151.269 95.5043C150.401 96.1358 149.375 96.4515 148.191 96.4515C147.244 96.4515 146.368 96.2226 145.563 95.7648C144.773 95.2912 144.15 94.6518 143.692 93.8467C143.234 93.0416 143.005 92.1496 143.005 91.1708C143.005 89.4501 143.51 87.9583 144.521 86.6953C145.547 85.4324 146.881 84.5562 148.523 84.0668L148.949 84.5641ZM162.679 84.1379C163.326 84.1379 163.926 84.3194 164.478 84.6825C165.031 85.0456 165.465 85.6218 165.781 86.4112L163.839 87.4057C163.681 86.8532 163.365 86.4191 162.892 86.1033C162.434 85.7876 161.945 85.6297 161.424 85.6297C160.666 85.6297 159.995 85.8271 159.411 86.2217C158.827 86.6164 158.377 87.1216 158.061 87.7372C157.745 88.3529 157.587 88.9765 157.587 89.608C157.587 90.713 157.769 91.6681 158.132 92.4732C158.495 93.2626 158.992 93.8704 159.624 94.2966C160.255 94.7071 160.966 94.9123 161.755 94.9123C162.702 94.9123 163.531 94.6834 164.241 94.2256C164.952 93.752 165.623 93.1521 166.254 92.4259L166.657 92.8048C165.883 93.9888 165.062 94.8886 164.194 95.5043C163.342 96.1042 162.292 96.4041 161.045 96.4041C160.066 96.4041 159.19 96.1752 158.416 95.7174C157.643 95.2596 157.035 94.6123 156.593 93.7756C156.151 92.9232 155.93 91.9444 155.93 90.8393C155.93 89.608 156.182 88.4871 156.688 87.4768C157.193 86.4506 157.95 85.6376 158.961 85.0377C159.971 84.4378 161.21 84.1379 162.679 84.1379ZM174.673 84.28C175.447 84.28 176.173 84.4457 176.852 84.7772C177.546 85.1088 178.052 85.6139 178.367 86.2928L176.662 87.2163C176.41 86.8532 176.062 86.5296 175.62 86.2454C175.178 85.9455 174.705 85.7955 174.2 85.7955C173.395 85.7955 172.692 86.0086 172.092 86.4348C171.492 86.8453 171.034 87.4057 170.719 88.1161C170.403 88.8265 170.245 89.6159 170.245 90.4841C170.245 91.7313 170.458 92.7495 170.884 93.5388C171.311 94.3124 171.982 94.6992 172.897 94.6992C174.192 94.6992 175.084 94.1782 175.573 93.1363C176.062 92.0944 176.307 90.9577 176.307 89.7264V88.6608L178.391 87.7846V94.0124C178.391 94.2177 178.446 94.415 178.557 94.6044C178.667 94.7939 178.833 94.8886 179.054 94.8886C179.512 94.8886 179.93 94.5729 180.309 93.9414L180.664 94.3203C180.475 94.857 180.143 95.3148 179.67 95.6937C179.196 96.0568 178.723 96.2384 178.249 96.2384C177.57 96.2384 177.065 95.9858 176.733 95.4806C176.418 94.9754 176.26 94.3045 176.26 93.4678H176.212C175.818 94.3045 175.281 95.007 174.602 95.5753C173.939 96.1279 173.237 96.4041 172.495 96.4041C171.153 96.4041 170.135 95.9463 169.44 95.0307C168.761 94.0993 168.422 92.86 168.422 91.3129C168.422 90.0816 168.698 88.9291 169.251 87.8556C169.803 86.7664 170.553 85.8981 171.5 85.2508C172.463 84.6036 173.521 84.28 174.673 84.28ZM185.192 94.1308C185.192 94.3203 185.247 94.5018 185.358 94.6755C185.468 94.8491 185.658 94.936 185.926 94.936C186.147 94.936 186.376 94.8412 186.613 94.6518C186.865 94.4466 187.055 94.2335 187.181 94.0124L187.583 94.3676C187.315 94.8886 186.944 95.3306 186.471 95.6937C185.997 96.0568 185.523 96.2384 185.05 96.2384C183.724 96.2384 183.061 95.4411 183.061 93.8467V75.1395L185.192 74.2396V94.1308Z" fill="#124163"/>
</svg>
