<svg width="1206" height="548" viewBox="0 0 1206 548" fill="none" xmlns="http://www.w3.org/2000/svg">
<path d="M96.9475 84.712C97.9288 84.712 98.4195 85.1813 98.4195 86.12C98.5475 86.12 98.6115 86.28 98.6115 86.6H98.7395L98.6115 87.528L98.7395 93.992L98.5475 99.112C100.468 99.112 101.758 100.52 102.42 103.336C102.42 103.912 102.025 104.243 101.236 104.328C100.873 104.328 100.468 103.528 100.02 101.928C99.5928 101.309 99.1022 101 98.5475 101H98.4195C97.7368 105.544 97.1395 107.816 96.6275 107.816C96.0088 108.947 95.1128 109.512 93.9395 109.512C92.2115 109.107 91.3475 108.243 91.3475 106.92V106.728C91.3475 104.723 92.7768 102.547 95.6355 100.2L96.6275 99.592L96.7555 96.136V95.336H96.6275C95.9022 96.2533 95.2088 96.712 94.5475 96.712H94.3555C92.8835 96.712 92.0408 95.5813 91.8275 93.32V92.616C91.8275 89.8853 92.8302 87.5173 94.8355 85.512C95.4542 84.9787 96.1582 84.712 96.9475 84.712ZM93.7475 92.2V93.736C93.8328 94.44 93.9928 94.792 94.2275 94.792H94.5475C95.1448 94.792 95.8808 92.5947 96.7555 88.2V86.6C95.4755 86.6 94.4728 88.4667 93.7475 92.2ZM93.2355 106.792C93.3208 107.325 93.6195 107.592 94.1315 107.592C95.1555 107.592 95.8915 105.768 96.3395 102.12H96.1475C94.2062 103.805 93.2355 105.363 93.2355 106.792Z" fill="black"/>
<path d="M1192.54 161.8C1192.69 161.267 1193.03 161 1193.57 161C1194.1 161 1194.45 161.533 1194.62 162.6H1194.75L1196.22 162.28C1196.9 162.28 1197.57 162.92 1198.21 164.2H1198.33C1199.27 162.728 1200.23 161.992 1201.21 161.992C1203.3 162.376 1204.35 163.741 1204.35 166.088L1204.41 167.208L1204.13 173.672V174.28C1204.13 174.813 1203.8 175.123 1203.13 175.208C1202.47 175.208 1202.14 174.429 1202.14 172.872L1202.53 167.08C1202.53 164.947 1202.02 163.88 1201.02 163.88C1200.45 163.88 1199.75 165.277 1198.94 168.072C1198.54 171.272 1198.21 172.872 1197.95 172.872C1197.59 172.872 1197.41 172.947 1197.41 173.096C1196.74 173.011 1196.41 172.669 1196.41 172.072L1196.83 168.2C1196.77 165.533 1196.5 164.2 1196.03 164.2H1195.93C1195.4 164.605 1195.13 165.405 1195.13 166.6V168.296L1195.01 173.192C1194.86 173.725 1194.53 173.992 1194.01 173.992C1193.57 173.992 1193.28 173.619 1193.15 172.872L1193.02 169.096L1193.21 165.992C1193.09 164.392 1192.86 162.995 1192.54 161.8Z" fill="black"/>
<path d="M401.44 488.736C402.144 488.736 402.496 489.016 402.496 489.576L402.28 490.032L402.136 494.424C402.136 496.408 402.536 497.64 403.336 498.12L403.384 498.48C403.336 498.944 403.12 499.176 402.736 499.176H402.592C401.392 498.36 400.792 497.112 400.792 495.432H400.624C399.984 497.224 399.208 498.12 398.296 498.12C397.448 497.88 397.024 497.248 397.024 496.224C397.024 493.968 397.928 491.72 399.736 489.48C400.344 488.984 400.912 488.736 401.44 488.736ZM398.536 495.264L398.44 495.936V496.392H398.68C399.88 493.4 400.48 491.576 400.48 490.92H400.384C399.456 491.96 398.84 493.408 398.536 495.264Z" fill="black"/>
<path d="M984.452 521.952C985.636 521.952 986.532 522.832 987.14 524.592L987.236 525.096C987.236 526.808 986.436 528.56 984.836 530.352C984.196 530.944 983.548 531.24 982.892 531.24C981.932 531.24 981.252 530.688 980.852 529.584C980.708 529.072 980.636 528.624 980.636 528.24V527.952C980.636 525.424 981.556 523.504 983.396 522.192C983.716 522.032 984.068 521.952 984.452 521.952ZM982.052 528.192C982.052 529.28 982.332 529.824 982.892 529.824C984.06 529.824 985.028 528.328 985.796 525.336V524.88C985.524 523.888 985.02 523.392 984.284 523.392C983.996 523.392 983.852 523.592 983.852 523.992C983.852 524.264 983.532 524.48 982.892 524.64C982.332 525.584 982.052 526.768 982.052 528.192Z" fill="black"/>
<path d="M946.045 10.864C946.941 11.056 947.389 11.504 947.389 12.208L947.101 14.32V14.944C947.101 16.352 947.261 17.84 947.581 19.408H947.677C951.389 18.288 953.693 17.728 954.589 17.728C955.517 17.984 955.981 18.448 955.981 19.12C955.981 20.208 954.877 20.752 952.669 20.752L947.677 22.528C947.677 26.848 948.141 32.72 949.069 40.144C948.877 41.008 948.413 41.44 947.677 41.44H947.581C946.461 41.44 945.901 40 945.901 37.12C945.485 34.976 945.133 30.32 944.845 23.152H943.981C940.973 22.96 939.469 22.256 939.469 21.04C939.469 20.688 939.805 20.256 940.477 19.744H940.957L943.165 20.32H944.701L944.269 14.32C944.269 12.016 944.861 10.864 946.045 10.864Z" fill="black"/>
<path d="M10.7006 456.56C11.5646 456.56 12.1566 458.016 12.4766 460.928C12.1566 461.728 11.6286 462.128 10.8926 462.128C10.3806 462.032 9.86863 461.44 9.35663 460.352L8.49263 460.064C6.98863 460.064 5.62863 461.056 4.41263 463.04V463.472C4.41263 463.952 6.66863 464.752 11.1806 465.872C13.0686 466.992 14.0126 468.352 14.0126 469.952C14.0126 472.576 11.9006 474.816 7.67663 476.672L5.90063 476.96C3.21263 476.672 1.86863 475.328 1.86863 472.928V472.784C1.86863 472.016 2.36463 471.568 3.35663 471.44C4.12463 471.44 4.63663 472.24 4.89263 473.84L5.27663 474.128H6.09263C7.91663 474.128 9.61263 472.88 11.1806 470.384V469.76C11.1806 468.8 9.08463 467.904 4.89263 467.072C2.68463 466.176 1.58063 464.928 1.58063 463.328C1.58063 461.248 3.32463 459.296 6.81263 457.472C8.34863 457.28 9.64463 456.976 10.7006 456.56Z" fill="black"/>
</svg>
