<svg width="141" height="27" viewBox="0 0 141 27" fill="none" xmlns="http://www.w3.org/2000/svg">
<path d="M10.56 26.448C8.512 26.448 6.57067 26.2773 4.736 25.936C2.92267 25.5733 1.52533 25.168 0.544 24.72V18.384H7.584C7.584 19.0453 7.73333 19.5253 8.032 19.824C8.33067 20.1227 8.87467 20.272 9.664 20.272C10.3253 20.272 10.7947 20.176 11.072 19.984C11.3707 19.7707 11.52 19.4613 11.52 19.056C11.52 18.7147 11.3813 18.4267 11.104 18.192C10.8267 17.936 10.3467 17.68 9.664 17.424L6.912 16.464C4.544 15.568 2.83733 14.512 1.792 13.296C0.768 12.08 0.256 10.4373 0.256 8.368C0.256 5.85067 1.07733 3.94133 2.72 2.64C4.384 1.31733 7.14667 0.655998 11.008 0.655998C12.864 0.655998 14.6027 0.847998 16.224 1.232C17.8667 1.59467 19.1893 2.08533 20.192 2.704V8.432H13.792C13.792 7.36533 13.1307 6.832 11.808 6.832C11.168 6.832 10.7093 6.91733 10.432 7.088C10.176 7.23733 10.048 7.51467 10.048 7.92C10.048 8.28267 10.1973 8.57067 10.496 8.784C10.816 8.99733 11.328 9.22133 12.032 9.456L14.816 10.416C17.0773 11.184 18.72 12.1867 19.744 13.424C20.7893 14.64 21.312 16.24 21.312 18.224C21.312 20.9333 20.3947 22.9813 18.56 24.368C16.7467 25.7547 14.08 26.448 10.56 26.448ZM40.7945 20.752V26H32.3465V23.824C31.8772 24.5067 31.2158 25.1147 30.3625 25.648C29.5305 26.1813 28.5065 26.448 27.2905 26.448C25.6905 26.448 24.4318 26.0213 23.5145 25.168C22.5972 24.3147 22.1385 23.1093 22.1385 21.552C22.1385 17.52 25.5625 15.4507 32.4105 15.344C32.3465 14.6187 32.0692 14.128 31.5785 13.872C31.0878 13.5947 30.2558 13.456 29.0825 13.456C28.1225 13.456 27.0878 13.5627 25.9785 13.776C24.8905 13.968 23.8878 14.2347 22.9705 14.576V8.688C24.1012 8.41067 25.3278 8.18667 26.6505 8.016C27.9732 7.84533 29.2638 7.76 30.5225 7.76C33.7012 7.76 35.9732 8.336 37.3385 9.488C38.7038 10.64 39.3865 12.4213 39.3865 14.832V20.752H40.7945ZM32.3465 18.512C31.3865 18.512 30.6398 18.64 30.1065 18.896C29.5945 19.152 29.3385 19.5787 29.3385 20.176C29.3385 20.5387 29.4452 20.8373 29.6585 21.072C29.8932 21.2853 30.2132 21.392 30.6185 21.392C31.1732 21.392 31.5998 21.1573 31.8985 20.688C32.1972 20.2187 32.3465 19.5573 32.3465 18.704V18.512ZM55.554 26.448C54.466 26.448 53.4953 26.1813 52.642 25.648C51.81 25.1147 51.1273 24.5067 50.594 23.824V26H41.826V20.752H43.234V6.352H41.826V1.104H50.594V10.384C51.1273 9.70133 51.81 9.09333 52.642 8.56C53.4953 8.02667 54.466 7.76 55.554 7.76C57.73 7.76 59.362 8.57067 60.45 10.192C61.5593 11.8133 62.114 14.1173 62.114 17.104C62.114 20.0907 61.5593 22.3947 60.45 24.016C59.362 25.6373 57.73 26.448 55.554 26.448ZM52.45 20.752C53.0687 20.752 53.5273 20.592 53.826 20.272C54.146 19.9307 54.306 19.408 54.306 18.704V15.504C54.306 14.8 54.146 14.288 53.826 13.968C53.5273 13.6267 53.0687 13.456 52.45 13.456C51.8313 13.456 51.362 13.6267 51.042 13.968C50.7433 14.288 50.594 14.8 50.594 15.504V18.704C50.594 19.408 50.7433 19.9307 51.042 20.272C51.362 20.592 51.8313 20.752 52.45 20.752ZM64.5495 6.448V1.104H71.0775V6.448H64.5495ZM63.0135 26V20.752H64.4215V13.456H63.0135V8.208H71.7815V20.752H73.1895V26H63.0135ZM81.98 26.448C79.7187 26.448 78.012 25.904 76.86 24.816C75.7293 23.7067 75.164 21.8507 75.164 19.248V13.456H73.756V8.208C74.5667 8.208 75.1747 8.00533 75.58 7.6C75.9853 7.17333 76.188 6.59733 76.188 5.872V4.432H82.972V8.208H87.292V13.456H82.972V18.704C82.972 19.408 83.1213 19.9307 83.42 20.272C83.74 20.592 84.2093 20.752 84.828 20.752C85.6387 20.752 86.524 20.656 87.484 20.464V25.488C86.8867 25.7227 86.076 25.936 85.052 26.128C84.0493 26.3413 83.0253 26.448 81.98 26.448ZM107.17 20.752V26H98.7215V23.824C98.2522 24.5067 97.5908 25.1147 96.7375 25.648C95.9055 26.1813 94.8815 26.448 93.6655 26.448C92.0655 26.448 90.8068 26.0213 89.8895 25.168C88.9722 24.3147 88.5135 23.1093 88.5135 21.552C88.5135 17.52 91.9375 15.4507 98.7855 15.344C98.7215 14.6187 98.4442 14.128 97.9535 13.872C97.4628 13.5947 96.6308 13.456 95.4575 13.456C94.4975 13.456 93.4628 13.5627 92.3535 13.776C91.2655 13.968 90.2628 14.2347 89.3455 14.576V8.688C90.4762 8.41067 91.7028 8.18667 93.0255 8.016C94.3482 7.84533 95.6388 7.76 96.8975 7.76C100.076 7.76 102.348 8.336 103.714 9.488C105.079 10.64 105.762 12.4213 105.762 14.832V20.752H107.17ZM98.7215 18.512C97.7615 18.512 97.0148 18.64 96.4815 18.896C95.9695 19.152 95.7135 19.5787 95.7135 20.176C95.7135 20.5387 95.8202 20.8373 96.0335 21.072C96.2682 21.2853 96.5882 21.392 96.9935 21.392C97.5482 21.392 97.9748 21.1573 98.2735 20.688C98.5722 20.2187 98.7215 19.5573 98.7215 18.704V18.512ZM108.201 26.032V20.752H109.609V6.352H108.201V1.104H116.969V20.752H118.377V26.032H108.201ZM138.685 20.752H140.061V26H132.221L128.925 19.856H128.157V26H119.389V20.752H120.797V6.352H119.389V1.104H128.157V14.096H128.925L132.893 8.208H139.645V13.456H138.333L135.613 16.496L138.685 20.752Z" fill="black"/>
</svg>

