<svg width="209" height="111" viewBox="0 0 209 111" fill="none" xmlns="http://www.w3.org/2000/svg">
<path d="M15.6288 49.663C12.5978 49.663 9.72459 49.4105 7.00928 48.9053C4.32555 48.3685 2.25749 47.7686 0.80512 47.1056V37.7283H11.2243C11.2243 38.7071 11.4453 39.4175 11.8874 39.8595C12.3294 40.3015 13.1345 40.5226 14.3027 40.5226C15.2815 40.5226 15.9761 40.3805 16.3866 40.0963C16.8286 39.7806 17.0496 39.3228 17.0496 38.7229C17.0496 38.2177 16.8444 37.7915 16.4339 37.4442C16.0235 37.0653 15.3131 36.6864 14.3027 36.3075L10.2298 34.8867C6.72512 33.5606 4.19925 31.9978 2.65216 30.1981C1.13664 28.3984 0.37888 25.9673 0.37888 22.9046C0.37888 19.179 1.59445 16.3532 4.0256 14.4272C6.48832 12.4697 10.5771 11.4909 16.2918 11.4909C19.0387 11.4909 21.6119 11.775 24.0115 12.3434C26.4427 12.8801 28.4002 13.6063 29.8842 14.5219V22.9994H20.4122C20.4122 21.4207 19.4334 20.6314 17.4758 20.6314C16.5286 20.6314 15.8498 20.7577 15.4394 21.0102C15.0605 21.2313 14.871 21.6417 14.871 22.2416C14.871 22.7783 15.0921 23.2046 15.5341 23.5203C16.0077 23.8361 16.7654 24.1676 17.8074 24.5149L21.9277 25.9357C25.2745 27.0723 27.7056 28.5563 29.2211 30.3875C30.7682 32.1872 31.5418 34.5552 31.5418 37.4915C31.5418 41.5013 30.1841 44.5324 27.4688 46.5846C24.7851 48.6369 20.8384 49.663 15.6288 49.663ZM60.3759 41.233V49H47.8728V45.7795C47.1782 46.7899 46.1994 47.6897 44.9365 48.479C43.7051 49.2684 42.1896 49.663 40.3899 49.663C38.0219 49.663 36.1591 49.0316 34.8015 47.7686C33.4438 46.5057 32.765 44.7218 32.765 42.417C32.765 36.4496 37.8325 33.387 47.9675 33.2291C47.8728 32.1556 47.4624 31.4294 46.7362 31.0506C46.01 30.6401 44.7786 30.4349 43.0421 30.4349C41.6213 30.4349 40.09 30.5927 38.4482 30.9085C36.8379 31.1926 35.354 31.5873 33.9963 32.0925V23.3782C35.6697 22.9678 37.4852 22.6363 39.4427 22.3837C41.4003 22.1311 43.3105 22.0048 45.1733 22.0048C49.8777 22.0048 53.2403 22.8573 55.261 24.5622C57.2817 26.2672 58.292 28.9036 58.292 32.4714V41.233H60.3759ZM47.8728 37.9178C46.452 37.9178 45.347 38.1072 44.5576 38.4861C43.7999 38.865 43.421 39.4964 43.421 40.3805C43.421 40.9172 43.5788 41.3593 43.8946 41.7066C44.2419 42.0223 44.7155 42.1802 45.3154 42.1802C46.1363 42.1802 46.7678 41.8329 47.2098 41.1382C47.6518 40.4436 47.8728 39.4649 47.8728 38.2019V37.9178ZM82.2199 49.663C80.6097 49.663 79.1731 49.2684 77.9102 48.479C76.6788 47.6897 75.6685 46.7899 74.8791 45.7795V49H61.9025V41.233H63.9863V19.921H61.9025V12.1539H74.8791V25.8883C75.6685 24.878 76.6788 23.9781 77.9102 23.1888C79.1731 22.3995 80.6097 22.0048 82.2199 22.0048C85.4404 22.0048 87.8558 23.2046 89.466 25.6042C91.1078 28.0037 91.9287 31.4137 91.9287 35.8339C91.9287 40.2542 91.1078 43.6641 89.466 46.0637C87.8558 48.4633 85.4404 49.663 82.2199 49.663ZM77.626 41.233C78.5416 41.233 79.2205 40.9962 79.6625 40.5226C80.1361 40.0174 80.3729 39.2438 80.3729 38.2019V33.4659C80.3729 32.424 80.1361 31.6662 79.6625 31.1926C79.2205 30.6875 78.5416 30.4349 77.626 30.4349C76.7104 30.4349 76.0158 30.6875 75.5422 31.1926C75.1001 31.6662 74.8791 32.424 74.8791 33.4659V38.2019C74.8791 39.2438 75.1001 40.0174 75.5422 40.5226C76.0158 40.9962 76.7104 41.233 77.626 41.233ZM95.5333 20.063V12.1539H105.195V20.063H95.5333ZM93.26 49V41.233H95.3438V30.4349H93.26V22.6678H106.237V41.233H108.32V49H93.26ZM121.33 49.663C117.984 49.663 115.458 48.8579 113.753 47.2477C112.079 45.6059 111.243 42.859 111.243 39.007V30.4349H109.159V22.6678C110.359 22.6678 111.259 22.3679 111.858 21.768C112.458 21.1365 112.758 20.2841 112.758 19.2106V17.0794H122.799V22.6678H129.192V30.4349H122.799V38.2019C122.799 39.2438 123.02 40.0174 123.462 40.5226C123.935 40.9962 124.63 41.233 125.545 41.233C126.745 41.233 128.056 41.0909 129.476 40.8067V48.2422C128.592 48.5895 127.392 48.9053 125.877 49.1894C124.393 49.5052 122.877 49.663 121.33 49.663ZM158.611 41.233V49H146.108V45.7795C145.413 46.7899 144.434 47.6897 143.172 48.479C141.94 49.2684 140.425 49.663 138.625 49.663C136.257 49.663 134.394 49.0316 133.036 47.7686C131.679 46.5057 131 44.7218 131 42.417C131 36.4496 136.068 33.387 146.203 33.2291C146.108 32.1556 145.697 31.4294 144.971 31.0506C144.245 30.6401 143.014 30.4349 141.277 30.4349C139.856 30.4349 138.325 30.5927 136.683 30.9085C135.073 31.1926 133.589 31.5873 132.231 32.0925V23.3782C133.905 22.9678 135.72 22.6363 137.678 22.3837C139.635 22.1311 141.545 22.0048 143.408 22.0048C148.113 22.0048 151.475 22.8573 153.496 24.5622C155.517 26.2672 156.527 28.9036 156.527 32.4714V41.233H158.611ZM146.108 37.9178C144.687 37.9178 143.582 38.1072 142.793 38.4861C142.035 38.865 141.656 39.4964 141.656 40.3805C141.656 40.9172 141.814 41.3593 142.13 41.7066C142.477 42.0223 142.95 42.1802 143.55 42.1802C144.371 42.1802 145.003 41.8329 145.445 41.1382C145.887 40.4436 146.108 39.4649 146.108 38.2019V37.9178ZM160.137 49.0474V41.233H162.221V19.921H160.137V12.1539H173.114V41.233H175.198V49.0474H160.137ZM205.253 41.233H207.29V49H195.686L190.808 39.9069H189.672V49H176.695V41.233H178.779V19.921H176.695V12.1539H189.672V31.3821H190.808L196.681 22.6678H206.674V30.4349H204.732L200.707 34.9341L205.253 41.233Z" fill="#124163"/>
<path d="M60.2649 95.1253C60.2649 95.52 60.1228 95.8515 59.8386 96.1199C59.5545 96.3882 59.215 96.5224 58.8204 96.5224C58.4257 96.5224 58.0863 96.3882 57.8021 96.1199C57.518 95.8515 57.3759 95.52 57.3759 95.1253C57.3759 94.7306 57.518 94.3912 57.8021 94.1071C58.0863 93.8229 58.4257 93.6808 58.8204 93.6808C59.215 93.6808 59.5545 93.8229 59.8386 94.1071C60.1228 94.3912 60.2649 94.7306 60.2649 95.1253ZM65.3986 95.1253C65.3986 95.52 65.2565 95.8515 64.9724 96.1199C64.6882 96.3882 64.3488 96.5224 63.9541 96.5224C63.5595 96.5224 63.22 96.3882 62.9359 96.1199C62.6517 95.8515 62.5096 95.52 62.5096 95.1253C62.5096 94.7306 62.6517 94.3912 62.9359 94.1071C63.22 93.8229 63.5595 93.6808 63.9541 93.6808C64.3488 93.6808 64.6882 93.8229 64.9724 94.1071C65.2565 94.3912 65.3986 94.7306 65.3986 95.1253ZM70.5324 95.1253C70.5324 95.52 70.3903 95.8515 70.1061 96.1199C69.822 96.3882 69.4825 96.5224 69.0879 96.5224C68.6932 96.5224 68.3538 96.3882 68.0696 96.1199C67.7855 95.8515 67.6434 95.52 67.6434 95.1253C67.6434 94.7306 67.7855 94.3912 68.0696 94.1071C68.3538 93.8229 68.6932 93.6808 69.0879 93.6808C69.4825 93.6808 69.822 93.8229 70.1061 94.1071C70.3903 94.3912 70.5324 94.7306 70.5324 95.1253ZM75.9503 94.1308C75.9503 94.3202 76.0055 94.5017 76.116 94.6754C76.2265 94.849 76.416 94.9359 76.6843 94.9359C76.9054 94.9359 77.1343 94.8412 77.3711 94.6517C77.6237 94.4465 77.8131 94.2334 77.9394 94.0124L78.3419 94.3676C78.0736 94.8885 77.7026 95.3305 77.229 95.6936C76.7554 96.0567 76.2818 96.2383 75.8082 96.2383C74.4821 96.2383 73.8191 95.441 73.8191 93.8466V75.1394L75.9503 74.2396V94.1308ZM82.2451 81.8882L81.4636 82.1724L80.4928 77.2469L83.0502 76.3708L82.2451 81.8882ZM83.0265 94.1308C83.0265 94.3676 83.0818 94.5649 83.1923 94.7228C83.3186 94.8648 83.4922 94.9359 83.7132 94.9359C83.8869 94.9359 84.0763 94.8569 84.2816 94.6991C84.5026 94.5412 84.7236 94.3123 84.9446 94.0124L85.3235 94.3676C84.9604 95.0464 84.5184 95.5279 83.9974 95.812C83.4922 96.0962 83.0265 96.2383 82.6003 96.2383C82.032 96.2383 81.5899 96.0567 81.2742 95.6936C80.9743 95.3305 80.8243 94.7149 80.8243 93.8466V85.2271L83.0265 84.3746V94.1308ZM89.8913 91.526H90.0571C90.5149 89.7263 91.1779 88.0371 92.0462 86.4584C92.9302 84.864 93.9958 84.0668 95.243 84.0668C95.7482 84.0668 96.1507 84.2641 96.4507 84.6588C96.7506 85.0534 96.9006 85.5349 96.9006 86.1032C96.9006 87.0662 96.4901 87.9897 95.6692 88.8738C94.8483 89.7578 93.909 90.5156 92.8513 91.1471C92.9302 91.2576 93.1986 91.6601 93.6564 92.3548C94.13 93.0336 94.6431 93.6414 95.1956 94.1781C95.7482 94.7149 96.2218 94.9832 96.6164 94.9832C97.1848 94.9832 97.6978 94.7149 98.1556 94.1781L98.5345 94.5807C98.1872 95.1174 97.7057 95.5516 97.09 95.8831C96.4901 96.1988 95.8981 96.3567 95.314 96.3567C94.6352 96.3567 94.0195 96.1041 93.467 95.5989C92.9302 95.0937 92.3461 94.3991 91.7147 93.5151C91.2095 92.8205 90.8306 92.3705 90.578 92.1653L90.3649 92.3311C90.2544 92.6942 90.1597 93.2309 90.0808 93.9413C90.0018 94.6517 89.9545 95.2832 89.9387 95.8357L87.7601 96.4514V75.1394L89.8913 74.2396V91.526ZM93.7748 86.6242C93.3012 86.6242 92.8276 87.0268 92.354 87.8319C91.8804 88.6212 91.391 89.6158 90.8859 90.8156C90.6333 91.3997 90.4912 91.7075 90.4596 91.7391C91.5173 91.297 92.4724 90.6893 93.3249 89.9157C94.1774 89.1422 94.6036 88.3607 94.6036 87.5714C94.6036 87.3662 94.5247 87.1609 94.3668 86.9557C94.2248 86.7347 94.0274 86.6242 93.7748 86.6242ZM106.511 84.0668C107.364 84.0668 108.074 84.2957 108.642 84.7535C109.211 85.2113 109.495 85.8901 109.495 86.79C109.495 87.5161 109.1 88.3292 108.311 89.229C107.537 90.113 106.622 90.9261 105.564 91.668C104.522 92.41 103.63 92.931 102.888 93.2309C103.283 93.8624 103.733 94.3044 104.238 94.557C104.743 94.7938 105.335 94.9122 106.014 94.9122C106.772 94.9122 107.522 94.7228 108.263 94.3439C109.021 93.9492 109.645 93.444 110.134 92.8284L110.418 93.3256C109.645 94.3202 108.824 95.0858 107.956 95.6226C107.087 96.1436 106.022 96.404 104.759 96.404C103.796 96.404 102.935 96.1672 102.178 95.6936C101.42 95.22 100.828 94.5886 100.402 93.7992C99.9755 92.9941 99.7624 92.1258 99.7624 91.1944C99.7624 90.0262 100.078 88.8896 100.71 87.7845C101.341 86.6794 102.178 85.7875 103.22 85.1087C104.262 84.4141 105.359 84.0668 106.511 84.0668ZM105.28 85.5586C104.585 85.5586 103.962 85.7796 103.409 86.2216C102.872 86.6637 102.446 87.232 102.13 87.9266C101.83 88.6212 101.68 89.3395 101.68 90.0815C101.68 91.0602 101.909 91.8969 102.367 92.5916C103.03 92.2916 103.748 91.8417 104.522 91.2418C105.296 90.6261 105.951 89.9631 106.487 89.2527C107.024 88.5423 107.293 87.895 107.293 87.3109C107.293 86.1427 106.622 85.5586 105.28 85.5586ZM123.568 84.2799C124.342 84.2799 125.068 84.4456 125.747 84.7772C126.441 85.1087 126.946 85.6138 127.262 86.2927L125.557 87.2162C125.305 86.8531 124.957 86.5295 124.515 86.2453C124.073 85.9454 123.6 85.7954 123.094 85.7954C122.289 85.7954 121.587 86.0085 120.987 86.4348C120.387 86.8452 119.929 87.4056 119.613 88.116C119.298 88.8264 119.14 89.6158 119.14 90.484C119.14 91.7312 119.353 92.7494 119.779 93.5388C120.205 94.3123 120.876 94.6991 121.792 94.6991C123.086 94.6991 123.978 94.1781 124.468 93.1362C124.957 92.0943 125.202 90.9576 125.202 89.7263V88.6607L127.286 87.7845V94.0124C127.286 94.2176 127.341 94.4149 127.451 94.6044C127.562 94.7938 127.728 94.8885 127.949 94.8885C128.407 94.8885 128.825 94.5728 129.204 93.9413L129.559 94.3202C129.37 94.8569 129.038 95.3148 128.564 95.6936C128.091 96.0567 127.617 96.2383 127.144 96.2383C126.465 96.2383 125.96 95.9857 125.628 95.4805C125.312 94.9753 125.155 94.3044 125.155 93.4677H125.107C124.713 94.3044 124.176 95.0069 123.497 95.5752C122.834 96.1278 122.131 96.404 121.389 96.404C120.048 96.404 119.029 95.9462 118.335 95.0306C117.656 94.0992 117.316 92.8599 117.316 91.3128C117.316 90.0815 117.593 88.929 118.145 87.8556C118.698 86.7663 119.448 85.898 120.395 85.2508C121.358 84.6035 122.416 84.2799 123.568 84.2799ZM139.174 94.1308C139.174 94.3202 139.229 94.5017 139.34 94.6754C139.45 94.849 139.64 94.9359 139.908 94.9359C140.129 94.9359 140.358 94.8412 140.595 94.6517C140.847 94.4465 141.037 94.2334 141.163 94.0124L141.566 94.3676C141.297 94.8885 140.926 95.3305 140.453 95.6936C139.979 96.0567 139.506 96.2383 139.032 96.2383C137.706 96.2383 137.043 95.441 137.043 93.8466V75.1394L139.174 74.2396V94.1308ZM148.95 84.564C147.766 85.3218 146.834 86.1664 146.156 87.0978C145.477 88.0292 145.137 89.1264 145.137 90.3893C145.137 91.0997 145.287 91.818 145.587 92.5442C145.887 93.2546 146.337 93.8466 146.937 94.3202C147.537 94.7938 148.255 95.0306 149.092 95.0306C149.771 95.0306 150.371 94.8727 150.892 94.557C151.428 94.2413 151.839 93.815 152.123 93.2783C152.423 92.7415 152.573 92.1495 152.573 91.5023C152.573 90.7603 152.344 90.0025 151.886 89.229C151.444 88.4554 150.86 87.8003 150.134 87.2636C149.408 86.7268 148.666 86.4269 147.908 86.3637C148.224 86.048 148.602 85.7165 149.045 85.3692C149.487 85.0218 149.936 84.6824 150.394 84.3509C151.484 84.714 152.344 85.4086 152.975 86.4348C153.607 87.4451 153.923 88.5738 153.923 89.821C153.923 90.9261 153.694 91.9917 153.236 93.0178C152.794 94.0281 152.139 94.8569 151.27 95.5042C150.402 96.1357 149.376 96.4514 148.192 96.4514C147.245 96.4514 146.369 96.2225 145.564 95.7647C144.774 95.2911 144.151 94.6517 143.693 93.8466C143.235 93.0415 143.006 92.1495 143.006 91.1708C143.006 89.45 143.511 87.9582 144.522 86.6952C145.548 85.4323 146.882 84.5561 148.524 84.0668L148.95 84.564ZM162.68 84.1378C163.327 84.1378 163.927 84.3193 164.479 84.6824C165.032 85.0455 165.466 85.6217 165.782 86.4111L163.84 87.4056C163.682 86.8531 163.366 86.419 162.893 86.1032C162.435 85.7875 161.945 85.6296 161.425 85.6296C160.667 85.6296 159.996 85.827 159.412 86.2216C158.828 86.6163 158.378 87.1215 158.062 87.7372C157.746 88.3528 157.588 88.9764 157.588 89.6079C157.588 90.7129 157.77 91.668 158.133 92.4732C158.496 93.2625 158.993 93.8703 159.625 94.2965C160.256 94.707 160.967 94.9122 161.756 94.9122C162.703 94.9122 163.532 94.6833 164.242 94.2255C164.953 93.7519 165.624 93.152 166.255 92.4258L166.658 92.8047C165.884 93.9887 165.063 94.8885 164.195 95.5042C163.343 96.1041 162.293 96.404 161.046 96.404C160.067 96.404 159.191 96.1751 158.417 95.7173C157.644 95.2595 157.036 94.6122 156.594 93.7756C156.152 92.9231 155.931 91.9443 155.931 90.8392C155.931 89.6079 156.183 88.487 156.689 87.4767C157.194 86.4505 157.951 85.6375 158.962 85.0376C159.972 84.4377 161.211 84.1378 162.68 84.1378ZM174.674 84.2799C175.448 84.2799 176.174 84.4456 176.853 84.7772C177.547 85.1087 178.053 85.6138 178.368 86.2927L176.663 87.2162C176.411 86.8531 176.063 86.5295 175.621 86.2453C175.179 85.9454 174.706 85.7954 174.201 85.7954C173.396 85.7954 172.693 86.0085 172.093 86.4348C171.493 86.8452 171.035 87.4056 170.72 88.116C170.404 88.8264 170.246 89.6158 170.246 90.484C170.246 91.7312 170.459 92.7494 170.885 93.5388C171.312 94.3123 171.983 94.6991 172.898 94.6991C174.193 94.6991 175.085 94.1781 175.574 93.1362C176.063 92.0943 176.308 90.9576 176.308 89.7263V88.6607L178.392 87.7845V94.0124C178.392 94.2176 178.447 94.4149 178.558 94.6044C178.668 94.7938 178.834 94.8885 179.055 94.8885C179.513 94.8885 179.931 94.5728 180.31 93.9413L180.665 94.3202C180.476 94.8569 180.144 95.3148 179.671 95.6936C179.197 96.0567 178.724 96.2383 178.25 96.2383C177.571 96.2383 177.066 95.9857 176.734 95.4805C176.419 94.9753 176.261 94.3044 176.261 93.4677H176.213C175.819 94.3044 175.282 95.0069 174.603 95.5752C173.94 96.1278 173.238 96.404 172.496 96.404C171.154 96.404 170.136 95.9462 169.441 95.0306C168.762 94.0992 168.423 92.8599 168.423 91.3128C168.423 90.0815 168.699 88.929 169.252 87.8556C169.804 86.7663 170.554 85.898 171.501 85.2508C172.464 84.6035 173.522 84.2799 174.674 84.2799ZM185.193 94.1308C185.193 94.3202 185.248 94.5017 185.359 94.6754C185.469 94.849 185.658 94.9359 185.927 94.9359C186.148 94.9359 186.377 94.8412 186.614 94.6517C186.866 94.4465 187.056 94.2334 187.182 94.0124L187.584 94.3676C187.316 94.8885 186.945 95.3305 186.471 95.6936C185.998 96.0567 185.524 96.2383 185.051 96.2383C183.725 96.2383 183.062 95.441 183.062 93.8466V75.1394L185.193 74.2396V94.1308Z" fill="#124163"/>
</svg>
