<svg width="1440" height="496" viewBox="0 0 1440 496" fill="none" xmlns="http://www.w3.org/2000/svg">
<path fill-rule="evenodd" clip-rule="evenodd" d="M0 141.714H34.8C68.4 141.714 136.8 141.714 205.2 165.333C274.8 188.952 343.2 236.19 411.6 212.571C480 188.952 548.4 94.4762 616.8 118.095C685.2 141.714 754.8 283.429 823.2 295.238C891.6 307.048 960 188.952 1028.4 177.143C1096.8 165.333 1165.2 259.81 1234.8 248C1303.2 236.19 1371.6 118.095 1405.2 59.0476L1440 0V496H1405.2C1371.6 496 1303.2 496 1234.8 496C1165.2 496 1096.8 496 1028.4 496C960 496 891.6 496 823.2 496C754.8 496 685.2 496 616.8 496C548.4 496 480 496 411.6 496C343.2 496 274.8 496 205.2 496C136.8 496 68.4 496 34.8 496H0V141.714Z" fill="#124163" fill-opacity="0.02"/>
<path fill-rule="evenodd" clip-rule="evenodd" d="M0 203.143H34.8C68.4 203.143 136.8 203.143 205.2 222.667C274.8 242.19 343.2 281.238 411.6 261.714C480 242.19 548.4 164.095 616.8 183.619C685.2 203.143 754.8 320.286 823.2 330.048C891.6 339.81 960 242.19 1028.4 232.429C1096.8 222.667 1165.2 300.762 1234.8 291C1303.2 281.238 1371.6 183.619 1405.2 134.81L1440 86V496H1405.2C1371.6 496 1303.2 496 1234.8 496C1165.2 496 1096.8 496 1028.4 496C960 496 891.6 496 823.2 496C754.8 496 685.2 496 616.8 496C548.4 496 480 496 411.6 496C343.2 496 274.8 496 205.2 496C136.8 496 68.4 496 34.8 496H0V203.143Z" fill="#124163" fill-opacity="0.04"/>
</svg>
